<svg width="460" height="553" viewBox="0 0 460 553" fill="none" xmlns="http://www.w3.org/2000/svg">
<path d="M82.1332 169.001L80.2788 169.75L82.1332 169.001ZM169.133 149.001L167.267 149.721L167.275 149.742L167.284 149.763L169.133 149.001ZM89.0127 273L90.4269 274.414L89.0127 273ZM20.5626 470.271C20.3213 469.194 19.2518 468.515 18.1739 468.757C17.096 468.998 16.4179 470.068 16.6593 471.146L20.5626 470.271ZM14.0453 461.982C14.3994 463.028 15.5346 463.59 16.5809 463.235C17.6271 462.881 18.1882 461.746 17.8341 460.7L14.0453 461.982ZM14.4084 451.475C14.0038 450.447 12.8427 449.942 11.8149 450.346C10.787 450.751 10.2817 451.912 10.6862 452.94L14.4084 451.475ZM7.11245 443.849C7.50641 444.881 8.66231 445.398 9.69424 445.004C10.7262 444.61 11.2433 443.454 10.8494 442.423L7.11245 443.849ZM7.67227 433.349C7.34538 432.294 6.22506 431.703 5.16997 432.03C4.11488 432.357 3.52456 433.477 3.85146 434.532L7.67227 433.349ZM1.39458 424.89C1.6061 425.974 2.65643 426.682 3.74056 426.47C4.82469 426.259 5.53208 425.208 5.32056 424.124L1.39458 424.89ZM4.11952 414.736C4.05409 413.634 3.10719 412.793 2.00456 412.858C0.901931 412.924 0.0611154 413.871 0.126547 414.973L4.11952 414.736ZM0.226129 404.962C0.13985 406.064 0.962602 407.026 2.0638 407.112C3.16499 407.199 4.12763 406.376 4.21391 405.275L0.226129 404.962ZM5.56216 395.862C5.78514 394.78 5.08891 393.722 4.00708 393.499C2.92525 393.276 1.86749 393.972 1.64451 395.054L5.56216 395.862ZM4.1638 385.479C3.82897 386.531 4.41084 387.656 5.46344 387.991C6.51604 388.326 7.64077 387.744 7.9756 386.691L4.1638 385.479ZM11.2925 377.676C11.7166 376.656 11.2335 375.486 10.2136 375.062C9.19365 374.638 8.02307 375.121 7.59903 376.141L11.2925 377.676ZM11.7122 367.167C11.2187 368.155 11.6197 369.356 12.6079 369.85C13.5961 370.343 14.7973 369.942 15.2908 368.954L11.7122 367.167ZM19.8272 360.492C20.3752 359.533 20.042 358.312 19.083 357.764C18.124 357.216 16.9022 357.549 16.3542 358.508L19.8272 360.492ZM21.4302 350.095C20.8386 351.028 21.1153 352.264 22.0481 352.855C22.9809 353.447 24.2166 353.17 24.8082 352.237L21.4302 350.095ZM30.1471 344.175C30.7739 343.266 30.5448 342.02 29.6353 341.393C28.7258 340.766 27.4804 340.996 26.8536 341.905L30.1471 344.175ZM32.5661 333.904C31.9103 334.793 32.0991 336.045 32.9878 336.701C33.8766 337.357 35.1288 337.168 35.7846 336.279L32.5661 333.904ZM41.6843 328.517C42.3644 327.646 42.2102 326.389 41.3398 325.709C40.4695 325.029 39.2126 325.183 38.5325 326.054L41.6843 328.517ZM44.6104 318.465C43.9101 319.319 44.0348 320.58 44.8889 321.28C45.7431 321.98 47.0033 321.856 47.7036 321.001L44.6104 318.465ZM53.9041 313.598C54.6218 312.758 54.5229 311.496 53.6832 310.778C52.8436 310.061 51.5811 310.159 50.8634 310.999L53.9041 313.598ZM57.3093 303.597C56.5766 304.424 56.6526 305.688 57.4791 306.42C58.3057 307.153 59.5697 307.077 60.3025 306.251L57.3093 303.597ZM66.8371 299C67.583 298.185 67.5273 296.92 66.7126 296.174C65.898 295.429 64.6329 295.484 63.8869 296.299L66.8371 299ZM70.4767 289.205C69.7194 290.009 69.7572 291.275 70.5613 292.032C71.3653 292.79 72.6311 292.752 73.3884 291.948L70.4767 289.205ZM80.1503 284.863C80.918 284.068 80.8965 282.802 80.1023 282.035C79.3081 281.267 78.0419 281.288 77.2743 282.083L80.1503 284.863ZM84.0673 275.136C83.2905 275.922 83.2975 277.188 84.0828 277.965C84.8682 278.741 86.1345 278.734 86.9112 277.949L84.0673 275.136ZM93.8836 270.952C94.6633 270.17 94.6612 268.903 93.8789 268.123C93.0965 267.344 91.8302 267.346 91.0505 268.128L93.8836 270.952ZM97.8516 261.279C97.0749 262.064 97.0819 263.33 97.8673 264.107C98.6527 264.884 99.919 264.877 100.696 264.091L97.8516 261.279ZM107.479 257.201C108.252 256.412 108.238 255.145 107.449 254.372C106.66 253.6 105.394 253.613 104.621 254.402L107.479 257.201ZM111.348 247.494C110.58 248.288 110.6 249.554 111.394 250.322C112.188 251.09 113.454 251.069 114.222 250.276L111.348 247.494ZM120.911 243.313C121.673 242.513 121.642 241.247 120.843 240.485C120.043 239.723 118.777 239.754 118.015 240.553L120.911 243.313ZM124.633 233.544C123.879 234.351 123.922 235.617 124.729 236.371C125.535 237.125 126.801 237.082 127.555 236.275L124.633 233.544ZM134.144 229.139C134.888 228.323 134.829 227.058 134.013 226.314C133.196 225.57 131.931 225.629 131.187 226.445L134.144 229.139ZM137.589 219.307C136.859 220.135 136.939 221.399 137.768 222.129C138.596 222.86 139.86 222.78 140.59 221.951L137.589 219.307ZM146.952 214.574C147.663 213.729 147.555 212.468 146.71 211.756C145.865 211.045 144.603 211.153 143.892 211.998L146.952 214.574ZM149.96 204.57C149.275 205.437 149.423 206.694 150.29 207.379C151.157 208.063 152.415 207.915 153.099 207.048L149.96 204.57ZM158.976 199.271C159.62 198.374 159.415 197.124 158.518 196.48C157.621 195.835 156.371 196.04 155.727 196.937L158.976 199.271ZM161.032 189.031C160.451 189.97 160.741 191.203 161.681 191.784C162.62 192.365 163.853 192.075 164.434 191.136L161.032 189.031ZM169.195 182.494C169.67 181.497 169.246 180.303 168.249 179.829C167.252 179.354 166.058 179.777 165.583 180.774L169.195 182.494ZM168.875 172.088C168.586 173.154 169.215 174.253 170.281 174.543C171.347 174.832 172.446 174.203 172.736 173.137L168.875 172.088ZM174.133 163.082C174.133 161.978 173.237 161.083 172.132 161.084C171.028 161.084 170.133 161.98 170.133 163.085L174.133 163.082ZM168.816 154.114C169.123 155.175 170.232 155.786 171.293 155.479C172.355 155.172 172.966 154.063 172.659 153.002L168.816 154.114ZM168.659 143.318C168.121 142.353 166.903 142.007 165.938 142.544C164.973 143.081 164.626 144.299 165.164 145.264L168.659 143.318ZM159.371 137.069C160.09 137.908 161.352 138.006 162.191 137.288C163.03 136.569 163.128 135.307 162.41 134.468L159.371 137.069ZM154.85 126.847C154.022 126.116 152.758 126.196 152.027 127.024C151.297 127.853 151.376 129.117 152.205 129.847L154.85 126.847ZM144.152 123.53C145.057 124.164 146.304 123.944 146.937 123.039C147.571 122.134 147.351 120.887 146.446 120.253L144.152 123.53ZM137.414 114.589C136.45 114.049 135.232 114.393 134.692 115.357C134.153 116.321 134.497 117.54 135.461 118.079L137.414 114.589ZM126.271 113.524C127.285 113.964 128.462 113.498 128.902 112.485C129.341 111.471 128.875 110.294 127.862 109.854L126.271 113.524ZM117.838 106.154C116.781 105.833 115.664 106.43 115.343 107.487C115.022 108.544 115.619 109.661 116.676 109.982L117.838 106.154ZM106.77 107.706C107.862 107.87 108.881 107.118 109.045 106.026C109.209 104.933 108.456 103.915 107.364 103.751L106.77 107.706ZM96.5149 103.207C95.4126 103.278 94.5763 104.229 94.647 105.331C94.7176 106.433 95.6685 107.27 96.7708 107.199L96.5149 103.207ZM87.3048 109.338C88.317 108.896 88.779 107.717 88.3367 106.705C87.8945 105.692 86.7154 105.23 85.7033 105.673L87.3048 109.338ZM76.7244 112.602C76.0509 113.478 76.2145 114.733 77.09 115.407C77.9654 116.08 79.2211 115.917 79.8947 115.041L76.7244 112.602ZM76.009 123.672C76.2541 122.595 75.5798 121.523 74.5028 121.278C73.4258 121.033 72.3539 121.707 72.1088 122.784L76.009 123.672ZM71.1988 133.668C71.2365 134.772 72.162 135.637 73.2659 135.599C74.3698 135.561 75.2342 134.636 75.1965 133.532L71.1988 133.668ZM76.3947 143.691C76.1883 142.606 75.1413 141.893 74.0562 142.1C72.9711 142.306 72.2588 143.353 72.4652 144.438L76.3947 143.691ZM74.9709 154.677C75.2824 155.737 76.3941 156.344 77.4538 156.032C78.5135 155.721 79.1201 154.609 78.8086 153.549L74.9709 154.677ZM82.0698 163.307C81.6853 162.272 80.5343 161.744 79.4987 162.129C78.4632 162.513 77.9354 163.664 78.3198 164.7L82.0698 163.307ZM82.4764 174.635C82.9694 175.623 84.1703 176.025 85.1588 175.532C86.1472 175.039 86.5488 173.838 86.0558 172.85L82.4764 174.635ZM91.2031 181.299C90.5478 180.41 89.2958 180.22 88.4066 180.875C87.5173 181.53 87.3277 182.782 87.9829 183.672L91.2031 181.299ZM95.0746 191.633C95.8829 192.386 97.1485 192.341 97.9012 191.533C98.654 190.724 98.6089 189.459 97.8005 188.706L95.0746 191.633ZM105.642 194.769C104.711 194.174 103.474 194.446 102.879 195.376C102.284 196.307 102.556 197.544 103.487 198.139L105.642 194.769ZM112.855 203.09C113.869 203.528 115.046 203.061 115.484 202.047C115.921 201.033 115.454 199.856 114.44 199.418L112.855 203.09ZM123.881 202.73C122.817 202.434 121.714 203.056 121.417 204.12C121.12 205.184 121.742 206.287 122.806 206.583L123.881 202.73ZM133.095 208.824C134.185 209.001 135.213 208.26 135.389 207.17C135.566 206.08 134.826 205.052 133.735 204.876L133.095 208.824ZM143.773 206.026C142.671 205.948 141.715 206.778 141.637 207.88C141.559 208.982 142.389 209.938 143.491 210.016L143.773 206.026ZM153.91 210.357C155.015 210.354 155.907 209.456 155.904 208.351C155.901 207.247 155.003 206.354 153.898 206.357L153.91 210.357ZM164.06 206.007C162.958 206.078 162.122 207.029 162.192 208.131C162.263 209.233 163.214 210.07 164.316 209.999L164.06 206.007ZM174.673 209.06C175.77 208.933 176.556 207.941 176.429 206.843C176.302 205.746 175.309 204.96 174.212 205.087L174.673 209.06ZM184.326 203.684C183.235 203.859 182.493 204.885 182.668 205.976C182.843 207.066 183.869 207.809 184.96 207.634L184.326 203.684ZM195.168 205.791C196.251 205.575 196.954 204.522 196.738 203.438C196.522 202.355 195.468 201.652 194.385 201.869L195.168 205.791ZM204.382 199.696C203.307 199.948 202.639 201.025 202.891 202.1C203.143 203.175 204.219 203.843 205.295 203.591L204.382 199.696ZM215.34 201.077C216.407 200.794 217.043 199.698 216.759 198.631C216.476 197.563 215.38 196.928 214.313 197.211L215.34 201.077ZM224.176 194.449C223.116 194.761 222.51 195.872 222.821 196.932C223.133 197.992 224.245 198.598 225.304 198.287L224.176 194.449ZM235.191 195.248C236.243 194.911 236.823 193.785 236.486 192.733C236.149 191.681 235.023 191.102 233.971 191.439L235.191 195.248ZM243.699 188.203C242.654 188.563 242.1 189.702 242.459 190.746C242.819 191.79 243.958 192.345 245.002 191.985L243.699 188.203ZM254.739 188.517C255.776 188.136 256.308 186.987 255.927 185.95C255.546 184.913 254.396 184.381 253.359 184.763L254.739 188.517ZM262.954 181.132C261.924 181.532 261.415 182.692 261.815 183.721C262.216 184.75 263.375 185.26 264.404 184.859L262.954 181.132ZM273.999 181.025C275.021 180.606 275.51 179.438 275.091 178.416C274.672 177.394 273.503 176.905 272.481 177.324L273.999 181.025ZM281.942 173.35C280.928 173.786 280.459 174.962 280.895 175.977C281.332 176.992 282.508 177.461 283.523 177.024L281.942 173.35ZM292.976 172.864C293.984 172.411 294.433 171.227 293.98 170.22C293.527 169.212 292.343 168.763 291.335 169.216L292.976 172.864ZM300.658 164.93C299.658 165.4 299.228 166.591 299.698 167.591C300.167 168.59 301.358 169.02 302.358 168.551L300.658 164.93ZM311.665 164.088C312.657 163.602 313.067 162.404 312.582 161.412C312.096 160.42 310.898 160.01 309.906 160.495L311.665 164.088ZM319.072 155.914C318.088 156.416 317.697 157.621 318.199 158.605C318.701 159.589 319.905 159.98 320.889 159.478L319.072 155.914ZM330.068 154.696C331.043 154.177 331.413 152.966 330.894 151.991C330.376 151.016 329.164 150.646 328.189 151.165L330.068 154.696ZM337.222 146.252C336.257 146.788 335.909 148.006 336.446 148.972C336.983 149.937 338.201 150.284 339.166 149.747L337.222 146.252ZM21.4887 475.202C21.2369 473.529 20.9246 471.887 20.5626 470.271L16.6593 471.146C17.0022 472.677 17.2966 474.225 17.5333 475.798L21.4887 475.202ZM17.8341 460.7C16.7783 457.58 15.6051 454.516 14.4084 451.475L10.6862 452.94C11.876 455.963 13.021 458.956 14.0453 461.982L17.8341 460.7ZM10.8494 442.423C9.71123 439.441 8.62821 436.434 7.67227 433.349L3.85146 434.532C4.84189 437.729 5.95722 440.823 7.11245 443.849L10.8494 442.423ZM5.32056 424.124C4.73248 421.11 4.31275 417.993 4.11952 414.736L0.126547 414.973C0.33122 418.422 0.775462 421.717 1.39458 424.89L5.32056 424.124ZM4.21391 405.275C4.44908 402.273 4.88593 399.142 5.56216 395.862L1.64451 395.054C0.935283 398.495 0.474596 401.791 0.226129 404.962L4.21391 405.275ZM7.9756 386.691C8.89461 383.802 9.99341 380.801 11.2925 377.676L7.59903 376.141C6.25827 379.365 5.11944 382.475 4.1638 385.479L7.9756 386.691ZM15.2908 368.954C16.6544 366.224 18.1629 363.405 19.8272 360.492L16.3542 358.508C14.655 361.481 13.111 364.366 11.7122 367.167L15.2908 368.954ZM24.8082 352.237C26.4669 349.622 28.2443 346.936 30.1471 344.175L26.8536 341.905C24.9234 344.706 23.1177 347.434 21.4302 350.095L24.8082 352.237ZM35.7846 336.279C37.6502 333.751 39.6153 331.164 41.6843 328.517L38.5325 326.054C36.4418 328.729 34.4544 331.345 32.5661 333.904L35.7846 336.279ZM47.7036 321.001C49.6869 318.582 51.7527 316.115 53.9041 313.598L50.8634 310.999C48.695 313.536 46.6116 316.024 44.6104 318.465L47.7036 321.001ZM60.3025 306.251C62.4072 303.877 64.5847 301.46 66.8371 299L63.8869 296.299C61.6206 298.774 59.4287 301.206 57.3093 303.597L60.3025 306.251ZM73.3884 291.948C75.5776 289.623 77.831 287.262 80.1503 284.863L77.2743 282.083C74.9433 284.494 72.678 286.868 70.4767 289.205L73.3884 291.948ZM86.9112 277.949C88.068 276.78 89.2398 275.601 90.4269 274.414L87.5985 271.586C86.4063 272.778 85.2293 273.961 84.0673 275.136L86.9112 277.949ZM90.4269 274.414C91.5935 273.248 92.7457 272.094 93.8836 270.952L91.0505 268.128C89.9142 269.268 88.7636 270.421 87.5985 271.586L90.4269 274.414ZM100.696 264.091C103.021 261.74 105.282 259.444 107.479 257.201L104.621 254.402C102.429 256.64 100.173 258.932 97.8516 261.279L100.696 264.091ZM114.222 250.276C116.529 247.892 118.758 245.572 120.911 243.313L118.015 240.553C115.87 242.804 113.648 245.117 111.348 247.494L114.222 250.276ZM127.555 236.275C129.848 233.822 132.044 231.445 134.144 229.139L131.187 226.445C129.099 228.737 126.915 231.102 124.633 233.544L127.555 236.275ZM140.59 221.951C142.837 219.401 144.956 216.945 146.952 214.574L143.892 211.998C141.918 214.343 139.819 216.777 137.589 219.307L140.59 221.951ZM153.099 207.048C155.236 204.342 157.192 201.754 158.976 199.271L155.727 196.937C153.983 199.365 152.064 201.904 149.96 204.57L153.099 207.048ZM164.434 191.136C166.305 188.112 167.886 185.242 169.195 182.494L165.583 180.774C164.348 183.37 162.839 186.111 161.032 189.031L164.434 191.136ZM172.736 173.137C173.684 169.645 174.135 166.321 174.133 163.082L170.133 163.085C170.135 165.942 169.738 168.913 168.875 172.088L172.736 173.137ZM172.659 153.002C172.197 151.408 171.635 149.824 170.983 148.24L167.284 149.763C167.887 151.228 168.4 152.674 168.816 154.114L172.659 153.002ZM170.999 148.282C170.356 146.612 169.569 144.955 168.659 143.318L165.164 145.264C165.992 146.753 166.697 148.241 167.267 149.721L170.999 148.282ZM162.41 134.468C160.155 131.833 157.611 129.281 154.85 126.847L152.205 129.847C154.841 132.171 157.251 134.592 159.371 137.069L162.41 134.468ZM146.446 120.253C143.554 118.228 140.525 116.33 137.414 114.589L135.461 118.079C138.457 119.756 141.372 121.583 144.152 123.53L146.446 120.253ZM127.862 109.854C124.537 108.413 121.176 107.168 117.838 106.154L116.676 109.982C119.858 110.948 123.076 112.139 126.271 113.524L127.862 109.854ZM107.364 103.751C103.621 103.189 99.9718 102.985 96.5149 103.207L96.7708 107.199C99.8978 106.998 103.259 107.179 106.77 107.706L107.364 103.751ZM85.7033 105.673C82.1857 107.21 79.1221 109.486 76.7244 112.602L79.8947 115.041C81.8457 112.505 84.3496 110.629 87.3048 109.338L85.7033 105.673ZM72.1088 122.784C71.3762 126.003 71.0607 129.624 71.1988 133.668L75.1965 133.532C75.0682 129.773 75.3649 126.501 76.009 123.672L72.1088 122.784ZM72.4652 144.438C73.0742 147.639 73.9045 151.049 74.9709 154.677L78.8086 153.549C77.7746 150.032 76.9766 146.749 76.3947 143.691L72.4652 144.438ZM78.3198 164.7C78.9304 166.344 79.5831 168.028 80.2788 169.75L83.9877 168.252C83.3055 166.563 82.6666 164.915 82.0698 163.307L78.3198 164.7ZM80.2788 169.75C80.96 171.436 81.693 173.064 82.4764 174.635L86.0558 172.85C85.3204 171.375 84.6304 169.843 83.9877 168.252L80.2788 169.75ZM87.9829 183.672C90.1323 186.589 92.5024 189.238 95.0746 191.633L97.8005 188.706C95.4093 186.479 93.2048 184.015 91.2031 181.299L87.9829 183.672ZM103.487 198.139C106.44 200.027 109.569 201.672 112.855 203.09L114.44 199.418C111.34 198.079 108.402 196.534 105.642 194.769L103.487 198.139ZM122.806 206.583C126.122 207.508 129.557 208.25 133.095 208.824L133.735 204.876C130.331 204.324 127.042 203.612 123.881 202.73L122.806 206.583ZM143.491 210.016C146.891 210.257 150.368 210.368 153.91 210.357L153.898 206.357C150.447 206.367 147.068 206.26 143.773 206.026L143.491 210.016ZM164.316 209.999C167.722 209.781 171.177 209.465 174.673 209.06L174.212 205.087C170.78 205.485 167.394 205.794 164.06 206.007L164.316 209.999ZM184.96 207.634C188.336 207.092 191.741 206.476 195.168 205.791L194.385 201.869C191.004 202.544 187.649 203.151 184.326 203.684L184.96 207.634ZM205.295 203.591C208.631 202.809 211.981 201.969 215.34 201.077L214.313 197.211C210.991 198.094 207.678 198.924 204.382 199.696L205.295 203.591ZM225.304 198.287C228.6 197.317 231.898 196.303 235.191 195.248L233.971 191.439C230.707 192.484 227.44 193.489 224.176 194.449L225.304 198.287ZM245.002 191.985C248.26 190.862 251.508 189.705 254.739 188.517L253.359 184.763C250.152 185.941 246.93 187.09 243.699 188.203L245.002 191.985ZM264.404 184.859C267.627 183.605 270.827 182.326 273.999 181.025L272.481 177.324C269.331 178.616 266.153 179.887 262.954 181.132L264.404 184.859ZM283.523 177.024C286.713 175.652 289.866 174.264 292.976 172.864L291.335 169.216C288.244 170.607 285.111 171.987 281.942 173.35L283.523 177.024ZM302.358 168.551C305.517 167.067 308.622 165.577 311.665 164.088L309.906 160.495C306.882 161.975 303.797 163.456 300.658 164.93L302.358 168.551ZM320.889 159.478C324.034 157.874 327.096 156.277 330.068 154.696L328.189 151.165C325.238 152.735 322.195 154.321 319.072 155.914L320.889 159.478ZM339.166 149.747C340.683 148.904 342.169 148.067 343.623 147.239L341.643 143.763C340.201 144.585 338.727 145.414 337.222 146.252L339.166 149.747Z" fill="#C0C0C0"/>
<path d="M363.633 3L457.633 55.5L407.133 146.5L405.633 141.5L388.133 146L384.133 129L366.633 134L361.133 117L344.133 122L339.133 105L322.133 109.5L317.633 93.5H311.133L363.633 3Z" fill="#F7F7F7" stroke="#BABABA" stroke-width="3"/>
<path d="M355.993 17.8602C356.718 18.2612 357.631 17.9986 358.032 17.2737C358.433 16.5488 358.17 15.6361 357.445 15.2351L355.993 17.8602ZM361.75 17.616C361.025 17.215 360.112 17.4776 359.711 18.2025C359.31 18.9274 359.572 19.8401 360.297 20.2411L361.75 17.616ZM360.469 20.3364C361.194 20.7374 362.107 20.4748 362.508 19.7499C362.909 19.025 362.647 18.1123 361.922 17.7113L360.469 20.3364ZM366.226 20.0922C365.501 19.6912 364.588 19.9538 364.187 20.6787C363.786 21.4036 364.049 22.3163 364.774 22.7173L366.226 20.0922ZM364.946 22.8126C365.671 23.2136 366.583 22.951 366.984 22.2261C367.385 21.5012 367.123 20.5885 366.398 20.1874L364.946 22.8126ZM370.702 22.5684C369.977 22.1674 369.064 22.43 368.663 23.1549C368.262 23.8798 368.525 24.7925 369.25 25.1935L370.702 22.5684ZM369.422 25.2887C370.147 25.6898 371.059 25.4272 371.461 24.7023C371.862 23.9774 371.599 23.0646 370.874 22.6636L369.422 25.2887ZM375.178 25.0446C374.453 24.6436 373.54 24.9061 373.139 25.6311C372.738 26.356 373.001 27.2687 373.726 27.6697L375.178 25.0446ZM373.898 27.7649C374.623 28.1659 375.536 27.9034 375.937 27.1785C376.338 26.4536 376.075 25.5408 375.35 25.1398L373.898 27.7649ZM379.654 27.5208C378.929 27.1198 378.017 27.3823 377.616 28.1072C377.215 28.8321 377.477 29.7449 378.202 30.1459L379.654 27.5208ZM378.374 30.2411C379.099 30.6421 380.012 30.3796 380.413 29.6547C380.814 28.9298 380.551 28.017 379.826 27.616L378.374 30.2411ZM384.13 29.997C383.406 29.596 382.493 29.8585 382.092 30.5834C381.691 31.3083 381.953 32.2211 382.678 32.6221L384.13 29.997ZM382.85 32.7173C383.575 33.1183 384.488 32.8558 384.889 32.1309C385.29 31.406 385.028 30.4932 384.303 30.0922L382.85 32.7173ZM388.607 32.4732C387.882 32.0722 386.969 32.3347 386.568 33.0596C386.167 33.7845 386.43 34.6973 387.154 35.0983L388.607 32.4732ZM387.327 35.1935C388.052 35.5945 388.964 35.3319 389.365 34.607C389.766 33.8821 389.504 32.9694 388.779 32.5684L387.327 35.1935ZM393.083 34.9494C392.358 34.5483 391.445 34.8109 391.044 35.5358C390.643 36.2607 390.906 37.1734 391.631 37.5745L393.083 34.9494ZM391.803 37.6697C392.528 38.0707 393.44 37.8081 393.841 37.0832C394.242 36.3583 393.98 35.4456 393.255 35.0446L391.803 37.6697ZM397.559 37.4255C396.834 37.0245 395.921 37.2871 395.52 38.012C395.119 38.7369 395.382 39.6496 396.107 40.0506L397.559 37.4255ZM396.279 40.1459C397.004 40.5469 397.917 40.2843 398.318 39.5594C398.719 38.8345 398.456 37.9218 397.731 37.5208L396.279 40.1459ZM402.035 39.9017C401.31 39.5007 400.398 39.7633 399.997 40.4882C399.596 41.2131 399.858 42.1258 400.583 42.5268L402.035 39.9017ZM400.755 42.6221C401.48 43.0231 402.393 42.7605 402.794 42.0356C403.195 41.3107 402.932 40.398 402.207 39.997L400.755 42.6221ZM406.511 42.3779C405.787 41.9769 404.874 42.2395 404.473 42.9644C404.072 43.6893 404.334 44.602 405.059 45.003L406.511 42.3779ZM405.231 45.0983C405.956 45.4993 406.869 45.2367 407.27 44.5118C407.671 43.7869 407.408 42.8742 406.684 42.4732L405.231 45.0983ZM410.988 44.8541C410.263 44.4531 409.35 44.7157 408.949 45.4406C408.548 46.1655 408.811 47.0782 409.535 47.4792L410.988 44.8541ZM409.708 47.5745C410.432 47.9755 411.345 47.7129 411.746 46.988C412.147 46.2631 411.885 45.3504 411.16 44.9494L409.708 47.5745ZM415.464 47.3303C414.739 46.9293 413.826 47.1919 413.425 47.9168C413.024 48.6417 413.287 49.5544 414.012 49.9554L415.464 47.3303ZM414.184 50.0506C414.909 50.4517 415.821 50.1891 416.222 49.4642C416.623 48.7393 416.361 47.8266 415.636 47.4255L414.184 50.0506ZM419.94 49.8065C419.215 49.4055 418.302 49.6681 417.901 50.393C417.5 51.1179 417.763 52.0306 418.488 52.4316L419.94 49.8065ZM418.66 52.5268C419.385 52.9278 420.298 52.6653 420.699 51.9404C421.1 51.2155 420.837 50.3027 420.112 49.9017L418.66 52.5268ZM424.416 52.2827C423.691 51.8817 422.779 52.1442 422.378 52.8691C421.977 53.5941 422.239 54.5068 422.964 54.9078L424.416 52.2827ZM423.136 55.003C423.861 55.404 424.774 55.1415 425.175 54.4166C425.576 53.6917 425.313 52.7789 424.588 52.3779L423.136 55.003ZM428.892 54.7589C428.167 54.3579 427.255 54.6204 426.854 55.3453C426.453 56.0702 426.715 56.983 427.44 57.384L428.892 54.7589ZM427.612 57.4792C428.337 57.8802 429.25 57.6177 429.651 56.8928C430.052 56.1679 429.789 55.2551 429.065 54.8541L427.612 57.4792ZM433.369 57.2351C432.644 56.8341 431.731 57.0966 431.33 57.8215C430.929 58.5464 431.191 59.4592 431.916 59.8602L433.369 57.2351ZM432.089 59.9554C432.813 60.3564 433.726 60.0939 434.127 59.369C434.528 58.644 434.266 57.7313 433.541 57.3303L432.089 59.9554ZM437.845 59.7113C437.12 59.3103 436.207 59.5728 435.806 60.2977C435.405 61.0226 435.668 61.9354 436.393 62.3364L437.845 59.7113ZM436.565 62.4316C437.29 62.8326 438.202 62.57 438.603 61.8451C439.004 61.1202 438.742 60.2075 438.017 59.8065L436.565 62.4316ZM442.321 62.1875C441.596 61.7864 440.683 62.049 440.282 62.7739C439.881 63.4988 440.144 64.4115 440.869 64.8126L442.321 62.1875ZM441.041 64.9078C441.766 65.3088 442.679 65.0462 443.08 64.3213C443.481 63.5964 443.218 62.6837 442.493 62.2827L441.041 64.9078ZM446.797 64.6636C446.072 64.2626 445.159 64.5252 444.758 65.2501C444.357 65.975 444.62 66.8877 445.345 67.2887L446.797 64.6636ZM445.517 67.384C446.242 67.785 447.155 67.5224 447.556 66.7975C447.957 66.0726 447.694 65.1599 446.969 64.7589L445.517 67.384ZM451.273 67.1398C450.548 66.7388 449.636 67.0014 449.235 67.7263C448.834 68.4512 449.096 69.3639 449.821 69.7649L451.273 67.1398ZM355.907 17.8126L355.993 17.8602L357.445 15.2351L357.359 15.1874L355.907 17.8126ZM360.297 20.2411L360.469 20.3364L361.922 17.7113L361.75 17.616L360.297 20.2411ZM364.774 22.7173L364.946 22.8126L366.398 20.1874L366.226 20.0922L364.774 22.7173ZM369.25 25.1935L369.422 25.2887L370.874 22.6636L370.702 22.5684L369.25 25.1935ZM373.726 27.6697L373.898 27.7649L375.35 25.1398L375.178 25.0446L373.726 27.6697ZM378.202 30.1459L378.374 30.2411L379.826 27.616L379.654 27.5208L378.202 30.1459ZM382.678 32.6221L382.85 32.7173L384.303 30.0922L384.13 29.997L382.678 32.6221ZM387.154 35.0983L387.327 35.1935L388.779 32.5684L388.607 32.4732L387.154 35.0983ZM391.631 37.5745L391.803 37.6697L393.255 35.0446L393.083 34.9494L391.631 37.5745ZM396.107 40.0506L396.279 40.1459L397.731 37.5208L397.559 37.4255L396.107 40.0506ZM400.583 42.5268L400.755 42.6221L402.207 39.997L402.035 39.9017L400.583 42.5268ZM405.059 45.003L405.231 45.0983L406.684 42.4732L406.511 42.3779L405.059 45.003ZM409.535 47.4792L409.708 47.5745L411.16 44.9494L410.988 44.8541L409.535 47.4792ZM414.012 49.9554L414.184 50.0506L415.636 47.4255L415.464 47.3303L414.012 49.9554ZM418.488 52.4316L418.66 52.5268L420.112 49.9017L419.94 49.8065L418.488 52.4316ZM422.964 54.9078L423.136 55.003L424.588 52.3779L424.416 52.2827L422.964 54.9078ZM427.44 57.384L427.612 57.4792L429.065 54.8541L428.892 54.7589L427.44 57.384ZM431.916 59.8602L432.089 59.9554L433.541 57.3303L433.369 57.2351L431.916 59.8602ZM436.393 62.3364L436.565 62.4316L438.017 59.8065L437.845 59.7113L436.393 62.3364ZM440.869 64.8126L441.041 64.9078L442.493 62.2827L442.321 62.1875L440.869 64.8126ZM445.345 67.2887L445.517 67.384L446.969 64.7589L446.797 64.6636L445.345 67.2887ZM449.821 69.7649L449.907 69.8126L451.359 67.1874L451.273 67.1398L449.821 69.7649Z" fill="#BABABA"/>
<mask id="path-4-outside-1_188_7746" maskUnits="userSpaceOnUse" x="124.133" y="353.5" width="146" height="146" fill="black">
<rect fill="white" x="124.133" y="353.5" width="146" height="146"/>
<path fill-rule="evenodd" clip-rule="evenodd" d="M197.133 496.5C235.793 496.5 267.133 465.16 267.133 426.5C267.133 387.84 235.793 356.5 197.133 356.5C158.473 356.5 127.133 387.84 127.133 426.5C127.133 465.16 158.473 496.5 197.133 496.5ZM197.133 476.5C224.748 476.5 247.133 454.114 247.133 426.5C247.133 398.886 224.748 376.5 197.133 376.5C169.519 376.5 147.133 398.886 147.133 426.5C147.133 454.114 169.519 476.5 197.133 476.5Z"/>
</mask>
<path fill-rule="evenodd" clip-rule="evenodd" d="M197.133 496.5C235.793 496.5 267.133 465.16 267.133 426.5C267.133 387.84 235.793 356.5 197.133 356.5C158.473 356.5 127.133 387.84 127.133 426.5C127.133 465.16 158.473 496.5 197.133 496.5ZM197.133 476.5C224.748 476.5 247.133 454.114 247.133 426.5C247.133 398.886 224.748 376.5 197.133 376.5C169.519 376.5 147.133 398.886 147.133 426.5C147.133 454.114 169.519 476.5 197.133 476.5Z" fill="#F7F7F7"/>
<path d="M264.133 426.5C264.133 463.503 234.136 493.5 197.133 493.5V499.5C237.45 499.5 270.133 466.817 270.133 426.5H264.133ZM197.133 359.5C234.136 359.5 264.133 389.497 264.133 426.5H270.133C270.133 386.183 237.45 353.5 197.133 353.5V359.5ZM130.133 426.5C130.133 389.497 160.13 359.5 197.133 359.5V353.5C156.817 353.5 124.133 386.183 124.133 426.5H130.133ZM197.133 493.5C160.13 493.5 130.133 463.503 130.133 426.5H124.133C124.133 466.817 156.817 499.5 197.133 499.5V493.5ZM244.133 426.5C244.133 452.457 223.091 473.5 197.133 473.5V479.5C226.404 479.5 250.133 455.771 250.133 426.5H244.133ZM197.133 379.5C223.091 379.5 244.133 400.543 244.133 426.5H250.133C250.133 397.229 226.404 373.5 197.133 373.5V379.5ZM150.133 426.5C150.133 400.543 171.176 379.5 197.133 379.5V373.5C167.862 373.5 144.133 397.229 144.133 426.5H150.133ZM197.133 473.5C171.176 473.5 150.133 452.457 150.133 426.5H144.133C144.133 455.771 167.862 479.5 197.133 479.5V473.5Z" fill="#BEBEBE" mask="url(#path-4-outside-1_188_7746)"/>
<path d="M255.133 478.5L251.133 473.5L242.133 482.5L247.133 486.5L248.133 496L304.133 550.5L319.133 534L264.133 478.5H255.133Z" fill="#F7F7F7" stroke="#BEBEBE" stroke-width="3" stroke-linecap="round"/>
<rect x="253.133" y="314.5" width="16" height="38" rx="8" fill="#D9D9D9"/>
<rect x="288.133" y="393.5" width="16" height="38" rx="8" transform="rotate(-90 288.133 393.5)" fill="#D9D9D9"/>
<rect x="307.003" y="327.5" width="16" height="38" rx="8" transform="rotate(45 307.003 327.5)" fill="#D9D9D9"/>
</svg>
